PathFileType	4	(X/Y/Z)	C:/Users/opensim2020/Desktop/walking_exp_matlab/subject03_walking12_straight_02.trc	
DataRate	CameraRate	NumFrames	NumMarkers	Units	OrigDataRate	OrigDataStartFrame	OrigNumFrames	
100.00	100.00	5	48	mm	100.00	1264	187	
Frame#	Time	LFHD			RFHD			LBHD			RBHD			C7			T10			CLAV			STRN			RBAK			LSHO			LUPA			LELB			LFRM			LWRA			LWRB			LFIN			RSHO			RUPA			RELB			RFRM			RWRA			RWRB			RFIN			LASI			RASI			LPSI			RPSI			LTHI			LKNE			LTIB			LANK			LHEE			LTOE			RTHI			RKNE			RTIB			RANK			RHEE			RTOE			*39			*40			*41			*42			*43			*44			*45			*46			*47			
		X1	Y1	Z1	X2	Y2	Z2	X3	Y3	Z3	X4	Y4	Z4	X5	Y5	Z5	X6	Y6	Z6	X7	Y7	Z7	X8	Y8	Z8	X9	Y9	Z9	X10	Y10	Z10	X11	Y11	Z11	X12	Y12	Z12	X13	Y13	Z13	X14	Y14	Z14	X15	Y15	Z15	X16	Y16	Z16	X17	Y17	Z17	X18	Y18	Z18	X19	Y19	Z19	X20	Y20	Z20	X21	Y21	Z21	X22	Y22	Z22	X23	Y23	Z23	X24	Y24	Z24	X25	Y25	Z25	X26	Y26	Z26	X27	Y27	Z27	X28	Y28	Z28	X29	Y29	Z29	X30	Y30	Z30	X31	Y31	Z31	X32	Y32	Z32	X33	Y33	Z33	X34	Y34	Z34	X35	Y35	Z35	X36	Y36	Z36	X37	Y37	Z37	X38	Y38	Z38	X39	Y39	Z39	X40	Y40	Z40	X41	Y41	Z41	X42	Y42	Z42	X43	Y43	Z43	X44	Y44	Z44	X45	Y45	Z45	X46	Y46	Z46	X47	Y47	Z47	X48	Y48	Z48	

164	1.630	1479.77954	-810.18207	1607.89783	1356.30237	-761.24127	1603.90051	1525.61023	-687.10339	1576.63074	1402.76086	-643.52057	1571.93689	1472.06238	-630.18195	1402.32507	1462.15503	-618.49554	1083.31982	1457.30701	-754.65027	1333.99133	1454.86658	-811.82959	1174.08142	1373.07251	-581.49097	1220.62854	1618.66394	-719.84344	1364.69434	1684.88123	-692.83936	1165.53381	1692.08459	-676.78595	1041.91418	1692.55286	-664.64240	911.44659	1665.87122	-631.67468	792.39594	1722.17810	-629.15912	805.14496	1712.53503	-568.37634	736.13715	1303.06726	-690.58337	1359.44324	1223.16333	-724.49890	1144.16211	1208.56482	-765.33734	1040.29016	1210.26282	-836.49072	924.53302	1246.86731	-908.25452	858.49933	1209.74182	-878.48297	833.36359	1216.38818	-935.94812	788.45667	1563.85034	-809.60052	941.99487	1329.34460	-783.82904	924.81653	1532.97998	-641.38373	949.56842	1383.37244	-628.31299	949.38031	1625.19421	-822.40082	646.39929	1582.76526	-885.29181	482.33722	1597.56775	-868.86798	282.50293	1565.91968	-874.59961	71.82920	1534.04773	-834.61749	35.29244	1530.60657	-1027.22766	37.64862	1291.11218	-710.66919	625.63696	1316.08179	-707.19196	445.21475	1322.41504	-556.99652	318.26474	1374.33130	-403.00677	171.85632	1429.27783	-357.03787	184.92032	1399.76758	-455.52042	37.65337	1457.86572	-719.66876	1676.39575																								 
165	1.640	1479.31665	-822.40192	1608.59717	1356.22314	-772.69958	1604.35022	1525.99658	-699.60004	1577.14709	1403.41443	-655.34515	1572.28064	1473.36462	-642.71185	1402.60559	1462.97375	-630.12695	1084.53223	1457.43774	-767.43976	1334.52612	1454.84705	-824.92786	1174.77686	1374.46667	-593.88629	1221.13123	1618.88232	-734.30634	1365.61328	1685.95007	-708.71222	1166.62598	1693.17773	-693.15033	1043.00415	1693.79712	-681.06744	912.51025	1667.57263	-648.54541	793.38287	1723.93408	-646.41418	806.06067	1715.20020	-586.31335	736.46515	1303.81592	-702.37012	1359.95227	1224.40906	-734.97485	1144.37915	1209.95361	-774.81281	1040.06653	1211.12061	-844.13525	923.00732	1247.16968	-915.17950	855.83868	1210.21008	-884.62164	831.18494	1216.69629	-941.17004	784.88971	1564.50635	-822.40344	943.46106	1330.21570	-796.68408	925.24658	1532.88708	-654.16840	950.70844	1383.58484	-640.46954	949.39160	1625.56567	-834.08777	646.41986	1584.19946	-895.23401	482.11969	1598.36816	-874.40637	282.46494	1565.89587	-875.08472	71.76725	1534.05481	-834.50293	35.32558	1530.31665	-1027.42749	37.56610	1291.42920	-729.68823	623.70471	1316.06396	-731.07666	443.71991	1322.74158	-579.40247	320.20810	1373.80298	-422.14575	177.13252	1428.98511	-377.43808	196.29889	1401.04932	-461.00500	40.52893																											 
166	1.650	1478.83228	-834.46191	1609.36060	1356.02869	-784.10992	1604.99109	1526.23096	-712.08575	1577.51453	1403.95740	-667.07947	1572.41248	1474.49109	-655.32623	1403.07751	1464.32751	-643.77368	1084.56604	1457.39844	-780.14984	1335.02478	1454.61340	-837.74493	1175.35864	1375.82666	-606.09631	1221.50220	1618.99268	-748.64050	1366.49377	1686.98657	-724.62457	1167.60535	1694.51404	-709.70416	1044.01685	1695.09888	-698.26703	913.42786	1669.37524	-666.36249	794.11938	1725.64050	-664.63257	806.75366	1717.64355	-605.90747	736.17377	1304.42688	-713.83234	1360.53760	1225.47717	-745.17401	1144.41272	1211.19641	-784.14978	1039.74731	1211.78638	-851.65088	921.63367	1247.49451	-921.69885	852.95728	1210.57861	-890.59564	828.95135	1217.12219	-945.85095	781.08624	1565.11853	-834.75366	944.65314	1330.84656	-808.82770	925.51526	1533.03137	-666.36346	951.87500	1383.96887	-652.64923	949.02698	1626.38501	-845.98785	647.11115	1585.95044	-903.36877	481.54889	1599.49463	-878.83099	282.11560	1565.98633	-875.02075	72.02763	1534.13269	-834.45581	35.45491	1530.37207	-1027.61450	37.28075	1291.57324	-748.17297	622.04303	1316.42371	-754.79730	442.28223	1322.91138	-602.85864	321.34692	1373.92615	-441.49124	183.07376	1428.54639	-397.85837	207.01196	1401.50781	-471.37500	45.89247																											 
167	1.660	1478.27295	-846.51135	1610.19104	1355.76221	-795.32983	1605.50452	1526.36218	-724.46417	1577.97546	1404.29907	-678.76373	1572.57056	1475.49243	-667.63733	1403.46875	1465.29993	-656.24139	1085.25928	1457.18262	-792.60272	1335.51672	1454.07654	-850.21539	1175.83008	1377.16919	-617.95154	1222.01965	1618.90784	-762.99426	1367.19934	1687.90979	-740.59613	1168.47144	1695.84143	-726.27472	1044.81384	1696.42554	-716.02960	914.15686	1671.14771	-685.18622	794.70538	1727.29565	-683.77032	807.22681	1719.89661	-627.04266	735.16943	1304.92493	-724.95483	1360.87952	1226.42065	-755.22900	1144.23438	1212.25549	-793.30225	1039.25928	1212.40466	-858.88141	919.95880	1247.79126	-927.89990	849.85437	1210.83752	-896.20422	826.59595	1217.55554	-950.15741	777.06726	1565.63123	-847.04565	945.69403	1331.20752	-820.36670	925.62476	1533.32056	-678.60193	952.67902	1384.52466	-664.41498	948.55597	1627.64014	-857.09625	648.50903	1587.53186	-910.57635	480.93420	1600.66431	-882.51282	281.78180	1566.61499	-875.59296	71.87521	1534.25122	-834.40442	35.69149	1530.23694	-1027.82605	37.01042	1291.71228	-765.63281	620.59851	1316.69116	-778.35492	441.11990	1322.49768	-627.00958	321.47726	1375.29932	-460.74731	190.29652	1431.02405	-417.86731	214.63162	1399.34338	-487.87909	52.35986	1457.95178	-754.64752	1677.87451																								 
168	1.670	1477.56458	-858.41772	1611.04797	1355.39990	-806.62079	1606.21350	1526.40454	-736.77667	1578.44775	1404.65063	-690.41302	1572.90601	1476.11609	-680.34528	1403.94495	1466.18713	-668.53210	1085.92554	1456.87659	-804.83539	1336.13440	1453.33911	-862.27026	1176.23389	1378.55579	-629.51318	1222.48157	1618.61633	-777.09113	1367.63879	1688.54199	-756.52954	1169.10449	1697.09119	-743.15234	1045.47070	1697.76807	-734.28571	914.74658	1672.73303	-704.54913	794.99066	1728.94897	-703.55438	807.44702	1721.94849	-649.53027	733.59601	1305.19177	-736.07172	1361.14661	1227.46985	-764.47382	1143.83289	1213.07690	-802.34131	1038.63892	1212.93408	-866.00769	918.18677	1248.09888	-933.75385	846.63342	1211.04358	-901.52899	824.06824	1218.07104	-954.05060	772.89374	1565.94666	-859.39911	946.76349	1331.31921	-831.47156	925.54395	1533.74377	-690.61652	953.32886	1385.23499	-676.00836	948.04065	1628.83508	-866.83496	649.72681	1588.87488	-916.98865	480.22769	1601.25830	-886.48004	281.65503	1566.15955	-875.88202	72.14400	1534.37732	-834.36438	35.96990	1530.20068	-1027.94031	36.71827	1292.08630	-782.23065	619.78491	1316.64270	-801.74731	440.62631	1322.66089	-650.88135	322.28165	1377.61182	-481.07050	197.70459	1434.33203	-438.25726	219.67307	1396.78320	-509.52594	58.75899																											 
